<!-- Generator: Adobe Illustrator 24.3.0, SVG Export Plug-In . SVG Version: 6.00 Build 0)  -->
<svg version="1.1" id="Layer_1" xmlns="http://www.w3.org/2000/svg" xmlns:xlink="http://www.w3.org/1999/xlink" x="0px" y="0px" viewBox="0 0 555.5 39.1" style="enable-background:new 0 0 555.5 39.1;" xml:space="preserve" width="555.5" height="39.1">
<path d="M45,0.1L32.7,23.5h-14l1.5-11.7L14,23.5H0L3,0.1h9.3L9.5,15.7L17,0.1h14l-2.7,15.6l7.4-15.6C35.7,0.1,45,0.1,45,0.1z" />
<path d="M64.2,23.5H45.5c-1,0-1.9-0.3-2.6-0.9c-0.7-0.6-1-1.3-1-2.1c0-0.3,0-0.5,0.1-0.9L47.1,4c0.3-0.9,1.1-1.8,2.4-2.6  c1.3-0.8,2.5-1.3,3.6-1.3h18.7L70.5,4h-14l-1.2,3.9h9.3l-1.3,3.9H54l-1.3,3.9h14L64.2,23.5z" />
<path d="M95.2,19.6c-0.3,1-1.1,1.9-2.3,2.7c-1.2,0.8-2.4,1.2-3.7,1.2H70.6l7.6-23.4h18.7c2.5,0,3.7,0.8,3.7,2.4c0,0.5-0.1,1-0.3,1.6  l-1,3.3c-0.3,1-1.7,1.8-4,2.6c1.6,0.5,2.3,1.3,2.3,2.2c0,0.1,0,0.3,0,0.5L95.2,19.6z M87.2,15.7l1.3-3.9h-4.7l-1.3,3.9  C82.5,15.7,87.2,15.7,87.2,15.7z M89.7,7.9L91,4h-4.7l-1.2,3.9H89.7z" />
<path d="M133.6,23.5h-18.8c-2.4,0-3.6-0.9-3.6-2.8c0-0.4,0.1-0.8,0.2-1.2l5-15.6c0.3-1,1.1-1.9,2.4-2.7s2.5-1.2,3.6-1.2h18.8  l-1.3,3.9h-14l-3.8,11.7h14L133.6,23.5z" />
<path d="M164.2,19.6c-0.4,1.1-1.2,2-2.6,2.9c-1.2,0.7-2.4,1-3.4,1h-14c-1.1,0-2-0.3-2.6-0.9s-1-1.3-1-2.1c0-0.3,0.1-0.6,0.2-0.9  l5-15.6c0.3-1,1.1-1.9,2.4-2.7c1.3-0.8,2.5-1.2,3.6-1.2h14c2.4,0,3.6,0.9,3.6,2.5c0,0.4-0.1,0.9-0.3,1.4L164.2,19.6z M156.1,15.7  L159.9,4h-4.7l-3.8,11.7H156.1z" />
<path d="M221.5,39.1h-28.1c-2.4,0-3.6-1-3.6-2.9c0-0.4,0.1-0.7,0.2-1.1l6.3-19.4l-7.2,7.8h-9.4l-2.1-7.7l-2.6,7.7h-9.3l7.6-23.4h9.3  l4.3,15.6l14.5-15.6h9.4l-7.6,23.4c-0.1,0.3-0.2,0.7-0.2,1c0,1.9,1.2,2.9,3.5,2.9h18.8L221.5,39.1z" />
<path d="M261.2,39.1h-28.1c-2.4,0-3.6-1-3.6-2.9c0-0.4,0.1-0.7,0.2-1.1l6.3-19.4l-7.2,7.8h-9.4l-2.1-7.7l-2.6,7.7h-9.4l7.6-23.4h9.3  l4.3,15.6L241,0.1h9.4l-7.6,23.4c-0.1,0.3-0.2,0.7-0.2,1c0,1.9,1.2,2.9,3.5,2.9h18.8L261.2,39.1z" />
<path d="M271.2,19.6c-0.4,1.1-1.2,2.1-2.5,2.9c-1.2,0.7-2.3,1-3.4,1h-14.1c-1,0-1.8-0.3-2.5-0.9s-1-1.3-1-2.1c0-0.3,0.1-0.6,0.2-0.9  l6.3-19.5h9.3l-5,15.6h4.7l5.1-15.6h9.4L271.2,19.6z" />
<path d="M319.6,39.1h-28c-2.4,0-3.7-0.9-3.7-2.7c0-0.4,0.1-0.8,0.2-1.2l3.8-11.7l-5.5-11.7l-3.8,11.7h-9.4l7.6-23.4h9.4l5.5,11.7  l3.8-11.7h9.4l-7.6,23.4c-0.1,0.4-0.2,0.9-0.2,1.3c0,1.8,1.2,2.7,3.7,2.7h18.7L319.6,39.1z" />
<path d="M314.6,23.5h-9.4l7.6-23.4h9.4L314.6,23.5z" />
<path d="M342.4,23.5h-18.7c-2.4,0-3.6-0.9-3.6-2.8c0-0.4,0.1-0.8,0.2-1.2l5.1-15.6c0.3-1,1.1-1.9,2.4-2.7s2.5-1.2,3.5-1.2h18.8  l-1.3,3.9h-14L331,15.6h14L342.4,23.5z" />
<path d="M388,39.1h-28c-0.9,0-1.7-0.3-2.5-0.8c-0.7-0.6-1.1-1.3-1.1-2.2c0-0.3,0-0.6,0.1-0.9l7.6-23.4h-4.7l-3.7,11.7h-9.4L352.6,4  c0.4-1.2,1.2-2.2,2.6-3c1.1-0.6,2.2-0.9,3.3-0.9h14.1c2.5,0,3.7,0.8,3.7,2.5c0,0.4-0.1,0.9-0.2,1.4l-6.4,19.5  c-0.1,0.4-0.2,0.8-0.2,1.2c0,1.8,1.2,2.7,3.6,2.7h18.7L388,39.1z M365.4,7.9l1.3-3.9h-4.6l-1.3,3.9H365.4z" />
<path d="M404.6,39.1h-28.1c-1,0-1.9-0.3-2.5-0.8c-0.7-0.6-1-1.2-1-2.1c0-0.3,0-0.7,0.2-1L383.4,4h-4.7l1.3-3.9h18.8L397.5,4h-4.8  l-6.3,19.5c-0.2,0.5-0.3,1-0.3,1.4c0,1.6,1.2,2.4,3.7,2.4h18.8L404.6,39.1z" />
<path d="M402.9,23.5h-9.4l7.6-23.4h9.4L402.9,23.5z" />
<path d="M432.9,19.6c-0.4,1.1-1.2,2-2.6,2.9c-1.2,0.7-2.3,1-3.3,1h-14.1c-1.1,0-2-0.3-2.6-0.9s-1-1.3-1-2.1c0-0.3,0-0.6,0.2-0.9  l5-15.6c0.3-1,1.1-1.9,2.4-2.7s2.4-1.2,3.5-1.2h14c2.4,0,3.7,0.9,3.7,2.5c0,0.4-0.1,0.9-0.3,1.4L432.9,19.6z M424.8,15.7L428.6,4  h-4.7l-3.8,11.7H424.8z" />
<path d="M481.2,39.1h-28c-2.4,0-3.7-0.9-3.7-2.7c0-0.4,0.1-0.8,0.2-1.2l3.8-11.7l-5.6-11.7l-3.8,11.7h-9.4l7.6-23.4h9.4l5.5,11.7  L461,0.1h9.4l-7.6,23.4c-0.1,0.4-0.2,0.9-0.2,1.3c0,1.8,1.2,2.7,3.7,2.7H485L481.2,39.1z" />
<path d="M489,35.2c-0.3,1-1.1,1.9-2.4,2.7s-2.4,1.2-3.6,1.2h-28.1l3.8-11.7h18.7c3.1,0,5.1-1.3,5.9-3.9l2.6-7.8  c0.2-0.5,0.2-1,0.2-1.4c0-1.7-1.2-2.5-3.7-2.5h-9.3c-2.4,0-3.6-0.9-3.6-2.8c0-0.4,0-0.7,0.1-1.1l1.3-3.9c0.3-0.9,1-1.8,2.2-2.6  s2.4-1.3,3.8-1.3h14L489.6,4h-9.4L479,7.9h14c2.4,0,3.7,0.9,3.7,2.6c0,0.4-0.1,0.8-0.2,1.3L489,35.2z" />
<path d="M518.2,23.5h-9.4l7.6-23.4h9.4L518.2,23.5z" />
<path d="M533,23.5h-9.3l7.6-23.4h9.4L533,23.5z" />
<path d="M547.9,23.5h-9.4l7.6-23.4h9.4L547.9,23.5z" />
<rect x="202.9" y="27" width="255.6" height="12.1" />
</svg>